<?xml version="1.0" standalone="no"?>
<!DOCTYPE svg PUBLIC "-//W3C//DTD SVG 20010904//EN"
 "http://www.w3.org/TR/2001/REC-SVG-20010904/DTD/svg10.dtd">
<svg version="1.0" xmlns="http://www.w3.org/2000/svg"
 width="1500.000000pt" height="1230.000000pt" viewBox="0 0 1500.000000 1230.000000"
 preserveAspectRatio="xMidYMid meet">
<metadata>
Created by potrace 1.10, written by Peter Selinger 2001-2011
</metadata>
<g transform="translate(0.000000,1230.000000) scale(0.100000,-0.100000)"
fill="#75a47f" stroke="none">
<path d="M9354 11860 c-9 -9 -97 -36 -219 -66 -33 -9 -80 -22 -105 -30 -25 -8
-56 -14 -70 -14 -15 0 -30 -4 -35 -9 -6 -5 -30 -14 -55 -19 -127 -29 -402
-113 -516 -157 -187 -72 -175 -67 -384 -168 -404 -197 -684 -437 -912 -782
-25 -38 -56 -88 -68 -110 -12 -22 -31 -56 -42 -75 -11 -19 -46 -82 -76 -140
-66 -125 -74 -140 -113 -205 -87 -147 -199 -401 -199 -451 0 -17 -24 -18 -38
-1 -6 6 -22 43 -36 80 -14 38 -36 83 -48 100 -21 31 -146 187 -157 197 -13 11
-88 98 -126 145 -22 27 -54 65 -71 84 -61 71 -219 287 -281 385 -76 119 -159
288 -203 411 -17 50 -36 97 -40 106 -5 9 -14 54 -20 100 -7 46 -16 88 -20 92
-14 16 -40 -6 -46 -41 -8 -48 -65 -224 -76 -236 -4 -6 -8 -20 -8 -33 0 -12 -6
-37 -14 -55 -13 -30 -22 -63 -54 -193 -6 -22 -18 -105 -28 -185 -17 -142 -16
-148 4 -275 26 -165 37 -214 51 -228 6 -6 11 -18 11 -27 0 -21 63 -167 79
-183 6 -6 11 -14 11 -18 0 -5 14 -28 30 -52 17 -25 30 -48 30 -52 0 -15 145
-211 211 -285 170 -192 451 -453 562 -522 26 -16 47 -37 47 -46 0 -25 -45
-158 -114 -339 -8 -21 -37 -99 -65 -173 -72 -195 -162 -413 -178 -431 -7 -8
-13 -20 -13 -24 0 -5 -39 -88 -86 -185 -48 -96 -105 -213 -127 -260 -45 -97
-67 -119 -387 -415 -107 -99 -237 -220 -290 -270 -53 -49 -167 -157 -255 -240
-258 -242 -939 -926 -1101 -1105 -82 -91 -205 -230 -274 -310 -69 -80 -127
-147 -130 -150 -5 -5 -47 -56 -241 -295 -36 -44 -81 -102 -100 -128 -38 -53
-49 -69 -141 -195 -93 -126 -177 -246 -233 -332 -56 -84 -49 -74 -128 -203
-32 -52 -67 -103 -77 -112 -19 -17 -20 -17 -26 0 -4 10 -2 26 5 37 22 36 34
237 27 503 -3 143 -10 285 -16 315 -6 30 -15 87 -20 125 -5 39 -16 104 -24
145 -93 475 -104 560 -86 700 6 52 11 116 11 142 -1 42 3 49 38 77 21 17 42
31 46 31 3 0 12 6 19 13 7 6 37 32 67 57 30 25 76 66 104 91 27 25 67 61 88
80 32 27 189 186 258 259 47 50 171 204 214 265 102 147 135 196 135 201 0 2
19 32 43 66 53 78 177 283 177 293 0 5 11 23 25 41 14 18 25 36 25 39 0 4 22
44 49 89 26 44 81 146 121 226 40 80 76 152 81 160 5 8 12 22 15 30 4 8 18 40
31 70 46 101 52 114 108 255 31 77 68 165 81 195 49 109 69 160 81 205 3 11
11 34 19 52 8 17 14 36 14 42 0 6 4 19 9 29 5 9 33 91 61 182 29 91 58 179 65
195 7 17 20 50 30 75 22 57 37 94 63 150 28 60 62 141 62 146 0 14 -25 -1 -51
-28 -81 -89 -210 -319 -316 -565 -9 -21 -20 -46 -25 -56 -5 -10 -22 -51 -37
-90 -70 -179 -143 -353 -152 -361 -5 -6 -9 -19 -9 -30 0 -12 -7 -30 -15 -40
-8 -11 -15 -28 -15 -38 0 -9 -6 -32 -14 -50 -27 -64 -46 -115 -91 -248 -25
-74 -53 -153 -62 -175 -8 -22 -21 -56 -28 -75 -121 -330 -300 -630 -513 -863
-134 -146 -240 -264 -313 -347 -40 -47 -78 -90 -84 -96 -6 -6 -34 -38 -62 -70
-131 -152 -192 -226 -238 -292 -27 -39 -56 -74 -64 -77 -32 -13 -32 15 -2 116
17 57 39 129 47 159 9 30 21 63 26 73 5 10 13 37 17 60 5 23 14 56 19 72 6 17
18 57 28 90 9 33 20 69 25 80 4 11 22 67 39 125 45 151 131 420 146 455 6 17
19 48 27 70 28 76 82 209 118 290 23 54 144 300 158 325 5 8 12 22 15 30 4 8
15 29 25 45 11 17 29 48 41 69 12 21 40 69 64 105 24 36 55 84 69 106 14 22
44 65 66 95 22 30 53 73 68 95 31 45 174 227 186 236 4 3 18 20 31 37 44 60
160 186 311 337 230 231 591 541 619 532 7 -2 12 -77 14 -233 5 -387 -38 -826
-104 -1060 -8 -28 -14 -61 -14 -73 0 -12 -5 -32 -12 -44 -6 -12 -15 -38 -19
-57 -7 -37 -23 -83 -46 -137 -7 -17 -13 -34 -13 -39 0 -8 -88 -228 -119 -294
-19 -42 -40 -80 -108 -200 -73 -127 -174 -266 -264 -365 -20 -22 -62 -69 -94
-105 -107 -119 -201 -207 -546 -516 -268 -241 -423 -358 -662 -504 -150 -92
-177 -117 -111 -107 81 13 397 195 586 338 135 102 296 231 343 275 17 15 73
64 125 108 146 123 164 140 331 306 140 140 285 314 361 435 25 40 147 279
176 345 8 19 21 47 29 62 7 14 13 35 13 45 0 10 6 27 14 38 7 11 16 31 19 45
3 14 13 48 21 75 74 247 112 463 142 818 13 153 15 281 12 567 -4 380 -7 410
-42 385 -70 -50 -389 -301 -505 -398 -192 -160 -528 -494 -686 -682 -154 -183
-348 -457 -428 -605 -14 -25 -39 -70 -56 -100 -91 -159 -229 -459 -284 -620
-9 -25 -26 -70 -37 -100 -12 -30 -25 -70 -30 -89 -5 -18 -13 -38 -19 -44 -6
-6 -11 -20 -11 -31 0 -11 -6 -38 -14 -61 -35 -99 -147 -483 -166 -565 -4 -19
-12 -48 -18 -65 -5 -16 -17 -57 -27 -90 -9 -33 -23 -80 -31 -105 -8 -25 -14
-59 -14 -77 0 -18 -7 -58 -15 -90 -11 -42 -15 -113 -15 -271 0 -215 6 -264 46
-393 23 -77 29 -139 13 -139 -25 0 -232 270 -291 378 -12 24 -38 72 -56 105
-47 87 -112 242 -112 266 0 13 12 26 30 36 48 25 110 129 141 240 20 72 18
372 -4 490 -21 117 -35 182 -47 219 -5 17 -21 67 -36 111 -14 44 -30 91 -36
105 -6 14 -17 39 -24 55 -7 17 -15 37 -18 45 -3 8 -19 38 -36 65 -16 28 -34
59 -39 70 -10 22 -131 223 -268 445 -98 159 -217 387 -228 437 -3 18 -11 35
-16 38 -5 4 -9 13 -9 22 0 8 -6 29 -13 46 -25 58 -39 101 -47 142 -17 84 -75
214 -136 300 -53 75 -155 174 -259 250 -44 32 -105 77 -135 99 -115 85 -199
157 -236 202 -22 26 -44 52 -50 58 -24 25 -50 72 -69 124 -22 61 -49 87 -65
62 -5 -8 -10 -44 -10 -80 0 -36 -7 -94 -16 -130 -31 -132 -62 -389 -74 -615
-11 -208 -4 -834 11 -909 5 -28 14 -82 19 -119 10 -69 64 -301 80 -341 4 -11
18 -52 30 -91 12 -38 26 -74 31 -80 5 -5 9 -16 9 -24 0 -13 20 -59 78 -181 10
-19 36 -67 60 -107 23 -41 42 -76 42 -78 0 -17 165 -244 238 -328 161 -185
311 -312 497 -423 133 -80 287 -154 318 -154 9 0 19 -4 22 -10 3 -5 28 -10 55
-10 56 0 67 -11 93 -90 46 -135 184 -344 314 -477 93 -94 224 -193 255 -193
27 0 43 -48 84 -250 52 -255 65 -387 73 -735 l8 -330 -86 -143 c-47 -79 -94
-155 -103 -170 -9 -15 -23 -38 -31 -52 -29 -53 -161 -287 -189 -335 -16 -27
-36 -63 -44 -80 -8 -16 -24 -46 -36 -65 -12 -19 -43 -78 -71 -130 -27 -52 -62
-117 -77 -145 -69 -124 -433 -845 -613 -1215 -18 -36 -35 -67 -39 -68 -20 -9
-6 -32 20 -32 23 1 31 9 52 53 13 29 34 68 46 87 19 33 61 110 171 319 25 47
55 101 67 120 12 20 39 70 61 111 21 41 49 92 62 112 12 21 23 40 23 42 0 2
19 37 43 78 24 40 47 80 51 88 4 8 12 24 19 35 7 11 40 70 74 131 85 155 87
157 99 174 6 8 23 36 36 61 47 85 182 314 342 582 89 147 166 276 171 285 6 9
35 55 66 102 30 47 77 120 103 163 51 83 224 346 303 461 43 63 56 74 133 113
74 38 193 105 240 133 52 33 216 105 335 150 77 28 151 56 165 62 14 6 41 14
60 18 19 5 49 13 65 18 63 22 238 61 390 87 50 8 134 22 188 32 53 9 100 13
103 10 8 -8 -16 -67 -27 -67 -15 0 -46 -72 -57 -135 -13 -64 -29 -290 -39
-522 -12 -283 34 -477 168 -713 44 -77 229 -427 269 -510 43 -87 135 -279 164
-342 14 -32 37 -82 51 -111 14 -30 25 -59 25 -64 0 -6 7 -24 15 -39 8 -16 15
-39 15 -51 0 -13 8 -24 21 -28 27 -9 31 -3 40 53 4 26 14 74 22 107 73 293
127 556 127 620 0 22 5 58 11 80 40 160 40 788 0 888 -6 16 -11 38 -11 51 0
33 -56 199 -97 286 -81 172 -259 397 -344 435 -86 38 -91 65 -11 65 65 0 268
-24 387 -45 44 -8 96 -15 115 -15 19 0 51 -5 70 -11 19 -5 73 -14 120 -20 221
-25 213 -22 225 -88 4 -19 22 -65 41 -103 236 -468 675 -833 1259 -1046 201
-73 274 -86 495 -86 150 0 210 3 260 16 36 9 97 25 135 34 163 40 281 84 530
200 145 67 369 179 410 205 64 40 78 48 126 73 53 28 69 56 44 71 -10 6 -101
65 -204 133 -102 68 -244 158 -314 200 -70 42 -140 85 -155 94 -15 10 -34 21
-42 25 -8 4 -37 20 -64 36 -48 28 -318 164 -381 193 -16 7 -55 24 -86 38 -128
57 -271 102 -454 141 -44 9 -100 21 -125 27 -66 15 -376 28 -520 22 -129 -5
-364 -24 -625 -49 -82 -8 -184 -16 -225 -17 -64 -3 -75 -1 -78 15 -3 13 9 23
45 38 26 11 55 23 63 28 234 124 402 276 544 491 63 95 80 123 151 255 21 39
56 98 77 133 21 34 38 64 38 66 0 8 105 171 123 191 32 36 59 84 52 96 -4 6
-19 8 -34 5 -34 -7 -138 -23 -281 -42 -111 -15 -216 -34 -310 -56 -25 -6 -63
-14 -85 -18 -22 -4 -53 -12 -70 -18 -16 -6 -57 -18 -90 -27 -33 -10 -76 -23
-95 -30 -19 -8 -60 -23 -90 -33 -168 -61 -288 -133 -393 -238 -84 -84 -153
-187 -249 -374 -42 -80 -90 -172 -108 -205 -18 -33 -44 -80 -57 -105 -35 -66
-44 -70 -135 -63 -139 11 -533 -24 -708 -62 -36 -7 -76 -16 -90 -18 -73 -13
-399 -111 -446 -135 -11 -5 -35 -16 -54 -24 -88 -37 -316 -152 -376 -189 -37
-22 -112 -74 -166 -115 -95 -73 -131 -87 -105 -42 23 42 411 559 478 638 21
25 89 106 150 180 350 420 796 872 1339 1355 19 18 82 74 140 126 58 52 218
191 355 308 138 118 255 219 260 225 6 6 37 32 70 58 60 46 148 78 213 78 27
0 131 20 232 45 30 8 93 17 140 20 47 3 123 9 170 14 189 21 678 6 706 -21 3
-4 -4 -31 -17 -60 -23 -52 -24 -60 -23 -303 0 -190 5 -273 18 -345 25 -140 46
-231 62 -268 8 -18 14 -43 14 -55 0 -13 7 -32 15 -43 8 -10 15 -27 15 -36 0
-10 7 -34 16 -55 9 -21 23 -51 30 -68 7 -16 26 -61 43 -98 17 -37 31 -71 31
-74 0 -11 201 -406 238 -468 19 -33 54 -89 77 -125 23 -36 51 -86 64 -111 12
-26 30 -54 41 -64 23 -21 21 -25 45 95 9 47 20 96 25 110 5 14 32 99 60 190
28 91 56 174 62 185 6 11 15 33 19 50 4 16 12 44 17 60 6 17 18 57 27 90 9 33
21 76 28 95 6 19 14 58 18 85 4 28 12 91 19 140 14 100 9 262 -10 340 -25 101
-52 185 -61 190 -5 4 -9 17 -9 30 0 13 -4 26 -9 29 -5 4 -20 27 -32 54 -34 70
-84 138 -161 220 -59 63 -86 112 -60 112 9 0 154 -75 237 -122 28 -15 75 -40
105 -54 30 -15 110 -53 178 -85 67 -33 128 -59 135 -59 7 0 21 -6 32 -13 11
-8 61 -26 110 -42 50 -15 106 -36 125 -47 19 -10 38 -18 43 -18 7 0 124 -108
212 -195 52 -52 257 -268 341 -361 122 -133 169 -190 218 -263 39 -60 57 -90
129 -226 31 -58 72 -112 141 -183 58 -61 167 -152 181 -152 4 0 18 -9 32 -20
34 -26 73 -27 73 -1 0 11 -4 22 -9 25 -5 3 -71 83 -147 178 -77 95 -174 209
-216 254 -109 114 -137 152 -220 304 -14 25 -39 70 -56 101 -82 148 -204 306
-299 384 -65 53 -165 115 -187 115 -8 0 -41 20 -95 57 -17 12 32 17 172 19 89
1 182 5 207 9 25 5 59 8 75 8 43 1 155 -23 187 -39 14 -8 33 -14 42 -14 18 0
101 -49 161 -94 210 -159 635 -665 891 -1059 24 -38 44 -70 44 -72 0 -2 12
-23 28 -47 90 -142 127 -208 237 -423 61 -121 129 -260 150 -310 22 -49 45
-99 52 -110 24 -36 16 -45 -39 -45 -29 0 -89 7 -133 15 -44 8 -125 22 -180 31
-342 55 -646 133 -825 212 -19 8 -48 21 -65 27 -75 30 -287 144 -360 194 -110
75 -211 156 -268 215 -149 155 -282 382 -348 596 -12 36 -25 79 -31 95 -34
101 -77 346 -106 602 -11 96 -25 137 -45 130 -7 -2 -13 -26 -15 -53 -5 -79 27
-428 52 -569 34 -186 91 -394 117 -420 5 -5 9 -18 9 -30 0 -12 4 -25 9 -30 4
-6 28 -46 51 -90 115 -213 245 -361 455 -521 187 -141 436 -256 715 -328 36
-10 85 -24 110 -32 25 -8 59 -14 77 -14 17 0 44 -5 60 -11 15 -6 60 -14 98
-19 39 -5 102 -13 140 -19 85 -12 298 -36 455 -51 63 -6 127 -13 142 -17 41
-8 44 15 10 88 -17 35 -42 93 -57 129 -62 149 -328 674 -361 711 -8 8 -14 19
-14 22 0 12 -159 275 -230 382 -104 156 -222 328 -250 364 -387 502 -544 645
-782 711 -92 25 -307 28 -425 5 -43 -9 -138 -19 -212 -22 -125 -6 -133 -5
-130 12 5 21 51 37 159 55 161 26 315 103 485 241 61 49 119 112 232 249 322
390 391 470 497 569 56 53 38 60 -84 32 -25 -5 -99 -17 -165 -26 -354 -48
-735 -107 -806 -126 -20 -5 -49 -9 -64 -9 -29 0 -132 -23 -206 -46 -26 -8 -57
-14 -68 -14 -12 0 -32 -5 -44 -12 -12 -6 -35 -15 -52 -19 -155 -40 -364 -159
-470 -268 -63 -64 -145 -188 -145 -217 0 -23 -24 -54 -41 -54 -5 0 -17 4 -27
10 -49 28 -158 59 -332 94 -216 44 -567 71 -800 62 -253 -9 -595 -56 -691 -94
-13 -6 -57 -20 -97 -32 -40 -13 -75 -27 -78 -31 -7 -12 -51 -12 -58 0 -5 8
244 199 395 303 35 24 96 66 134 93 63 43 237 150 275 168 8 4 42 23 75 42 60
35 261 135 271 135 3 0 35 14 71 30 35 17 66 30 69 30 2 0 34 14 71 31 109 49
125 56 182 79 30 12 136 48 235 81 100 32 189 63 198 69 10 5 23 10 29 10 6 0
25 6 42 14 18 8 43 16 57 19 14 3 59 17 100 31 119 42 132 47 180 60 38 11
159 48 405 122 28 8 68 19 90 25 22 6 44 14 50 20 5 5 20 9 33 9 13 0 32 5 43
11 11 6 46 17 77 26 31 8 80 21 107 29 28 8 66 19 85 24 19 4 114 29 210 55
96 25 202 53 235 61 33 8 69 19 80 23 26 11 100 30 150 40 22 4 56 12 75 18
56 18 143 42 170 47 39 8 139 33 203 51 33 9 66 15 74 13 8 -2 24 -30 35 -63
12 -33 24 -62 27 -65 3 -3 20 -25 36 -50 31 -47 141 -160 155 -160 5 0 15 -6
22 -13 21 -22 117 -87 127 -87 5 0 11 -4 13 -9 3 -8 127 -69 183 -89 54 -19
153 -41 263 -58 162 -25 377 -11 613 40 74 16 328 94 379 117 14 6 39 17 55
23 44 18 108 47 125 56 8 5 69 36 135 69 149 75 195 101 315 174 52 32 104 63
115 70 10 7 64 42 120 79 324 216 375 262 375 344 0 60 -34 90 -254 223 -237
142 -283 168 -456 252 -80 39 -152 75 -160 80 -8 5 -22 12 -30 15 -14 6 -31
13 -110 47 -19 9 -51 22 -70 31 -60 26 -301 103 -380 122 -105 26 -340 26
-430 1 -176 -49 -341 -118 -417 -174 -17 -12 -34 -23 -38 -23 -11 0 -165 -121
-270 -211 -136 -116 -312 -302 -370 -389 -52 -78 -85 -155 -85 -198 0 -48 -21
-65 -91 -73 -35 -4 -93 -14 -129 -22 -36 -8 -162 -36 -280 -61 -118 -25 -231
-50 -250 -55 -19 -6 -71 -17 -115 -26 -44 -9 -102 -22 -130 -30 -27 -8 -63
-16 -80 -17 l-30 -3 1 70 c1 67 31 167 101 340 18 43 49 74 73 75 30 0 492
247 613 327 167 111 266 245 327 443 44 143 84 259 102 293 53 103 73 137 163
272 179 270 198 309 240 479 37 150 21 162 -75 53 -143 -162 -402 -390 -508
-448 -20 -11 -44 -24 -52 -29 -23 -13 -279 -131 -340 -157 -155 -66 -307 -232
-371 -406 -11 -29 -24 -61 -29 -72 -4 -11 -11 -31 -13 -45 -5 -28 -22 -77 -43
-128 -8 -18 -14 -41 -14 -51 0 -10 -7 -32 -15 -47 -8 -16 -15 -39 -15 -52 0
-13 -5 -33 -12 -45 -6 -12 -15 -38 -19 -57 -4 -19 -15 -60 -24 -90 -10 -30
-23 -77 -30 -105 -7 -27 -38 -142 -69 -253 -59 -215 -69 -299 -41 -336 20 -27
19 -56 -2 -56 -10 0 -38 -6 -63 -14 -25 -8 -74 -22 -110 -32 -36 -9 -85 -22
-110 -29 -25 -7 -101 -27 -170 -45 -252 -64 -334 -87 -378 -106 -18 -8 -43
-14 -55 -14 -13 0 -32 -7 -43 -15 -10 -8 -29 -15 -41 -15 -12 0 -37 -6 -55
-14 -18 -8 -80 -28 -138 -46 -93 -28 -436 -138 -530 -171 -19 -6 -51 -18 -70
-26 -19 -8 -48 -21 -65 -27 -35 -15 -104 -45 -125 -56 -9 -4 -61 -26 -116 -48
-190 -77 -345 -156 -598 -306 -140 -83 -142 -85 -240 -156 -42 -30 -106 -76
-142 -102 -80 -58 -136 -104 -223 -184 -107 -99 -145 -130 -163 -137 -10 -4
-18 -5 -18 -3 0 15 36 77 98 170 102 153 177 289 310 566 74 155 162 374 162
404 0 7 8 20 18 30 18 15 22 15 64 -9 88 -49 266 -95 367 -95 160 1 400 90
625 233 64 40 337 225 366 247 19 15 40 29 45 31 9 4 192 122 245 159 222 153
362 240 519 322 71 36 111 72 97 86 -4 3 -22 0 -41 -7 -19 -7 -74 -16 -122
-22 -49 -5 -106 -13 -128 -19 -22 -5 -68 -10 -102 -10 -34 0 -95 -6 -135 -14
-67 -13 -202 -32 -303 -42 -76 -8 -462 -67 -550 -84 -51 -10 -116 -22 -217
-40 -32 -6 -69 -15 -84 -20 -14 -6 -37 -10 -52 -10 -15 0 -47 -6 -72 -14 -25
-8 -72 -22 -105 -32 -33 -9 -95 -35 -138 -56 -43 -21 -82 -38 -88 -38 -16 0
-7 39 46 185 26 72 52 147 59 167 6 21 16 42 22 48 6 6 55 17 109 25 54 8 113
19 129 25 17 5 81 24 141 41 158 45 400 126 443 148 9 5 42 19 72 31 123 49
310 152 406 224 23 17 53 39 67 49 41 30 194 189 236 246 22 29 88 132 146
230 248 413 487 717 854 1088 72 73 131 137 131 143 0 13 -63 13 -76 0z m-112
-109 c-12 -34 -94 -87 -192 -125 -107 -43 -369 -171 -445 -218 -146 -91 -272
-181 -370 -266 -175 -152 -252 -236 -414 -457 -41 -55 -77 -102 -80 -105 -4
-3 -32 -39 -64 -81 -61 -81 -200 -223 -257 -263 -103 -74 -154 -105 -242 -148
-54 -26 -101 -48 -106 -48 -5 0 -46 -20 -91 -45 -46 -24 -92 -47 -102 -50 -38
-12 -31 24 18 97 60 90 52 77 147 260 92 180 179 328 211 360 12 13 27 33 34
46 19 35 149 181 221 247 36 32 71 65 78 72 15 14 227 171 257 190 317 200
596 319 1075 460 30 9 73 22 95 28 68 21 215 62 227 64 4 1 4 -8 0 -18z m-244
-250 c-1 -6 -77 -86 -168 -178 -91 -93 -199 -212 -241 -264 -70 -87 -216 -294
-232 -329 -9 -19 -30 -53 -37 -60 -3 -3 -19 -27 -35 -55 -133 -232 -328 -421
-580 -562 -103 -57 -408 -198 -485 -223 -14 -5 -63 -23 -110 -40 -47 -17 -139
-49 -205 -71 -66 -23 -127 -47 -136 -55 -9 -8 -23 -12 -32 -9 -20 8 -12 36 36
131 35 67 38 71 90 87 30 9 62 17 73 17 10 0 39 6 64 15 25 8 97 31 160 51
211 66 301 137 470 369 218 299 318 411 494 551 45 35 106 84 136 108 30 24
116 87 190 139 74 53 140 100 145 104 65 54 306 233 313 233 6 0 12 7 16 15 3
8 12 15 21 15 8 0 15 5 15 10 0 6 9 10 21 10 11 0 19 -4 17 -9z m1852 -225 c0
-35 -116 -228 -200 -331 -178 -221 -236 -306 -283 -420 -50 -118 -52 -122 -72
-175 -50 -129 -76 -179 -130 -253 -56 -77 -132 -137 -435 -342 -63 -42 -152
-106 -196 -141 -105 -81 -116 -74 -65 38 27 60 50 120 121 323 17 50 38 105
46 123 7 18 14 39 14 47 0 7 6 26 14 42 8 15 29 64 47 108 58 142 130 234 241
308 29 19 123 70 208 114 179 92 221 117 310 186 78 62 99 84 247 259 106 126
133 150 133 114z m-5305 -242 c12 -45 29 -101 39 -125 10 -24 22 -53 27 -64 4
-11 20 -49 35 -85 40 -99 138 -299 190 -387 95 -161 156 -237 338 -423 144
-147 217 -235 256 -306 65 -120 71 -134 60 -153 -5 -10 -14 -36 -19 -57 -6
-22 -19 -70 -31 -109 -11 -38 -24 -88 -29 -110 -61 -259 -59 -255 -70 -255
-11 0 -47 35 -111 111 -30 35 -73 84 -96 109 -365 402 -652 864 -690 1110 -4
25 -10 50 -15 56 -14 17 -3 390 14 494 9 52 20 127 26 165 17 107 20 117 39
113 12 -2 23 -27 37 -84z m6415 -843 c64 -9 147 -30 172 -42 10 -5 34 -13 55
-18 21 -5 81 -25 133 -44 52 -19 104 -38 115 -42 11 -4 29 -11 40 -15 11 -5
53 -20 93 -34 40 -15 99 -38 130 -52 74 -33 114 -50 160 -70 20 -10 44 -21 52
-25 8 -5 26 -14 40 -20 102 -43 406 -208 437 -236 43 -40 19 -87 -82 -163
-192 -142 -483 -309 -720 -411 -144 -63 -236 -99 -320 -128 -131 -44 -178 -61
-200 -70 -32 -13 -88 -32 -120 -41 -16 -5 -43 -13 -60 -18 -16 -6 -55 -17 -85
-26 -30 -8 -71 -20 -90 -25 -55 -17 -187 -40 -282 -51 -138 -16 -368 9 -483
52 -55 20 -120 49 -135 58 -8 6 -22 13 -30 17 -8 4 -17 9 -20 12 -3 3 -25 19
-50 36 -75 49 -202 185 -237 254 -40 75 -42 109 -10 116 42 9 232 53 282 64
28 7 70 16 95 20 25 5 65 13 90 19 25 6 81 18 125 27 44 9 100 21 125 26 148
30 252 49 277 49 37 0 56 13 51 36 -4 23 -53 24 -178 1 -47 -9 -116 -21 -155
-27 -38 -6 -104 -17 -145 -25 -41 -7 -120 -21 -175 -30 -150 -25 -255 -45
-300 -56 -63 -17 -115 -22 -115 -12 0 32 74 147 139 217 102 108 516 429 651
505 71 39 219 111 230 111 7 0 26 6 43 13 50 21 138 47 177 50 66 7 225 5 280
-2z m-3670 -760 c0 -8 -17 -24 -98 -92 -13 -10 -26 -19 -29 -19 -3 0 -22 -13
-42 -28 -33 -26 -215 -138 -251 -155 -8 -4 -28 -15 -45 -25 -65 -40 -196 -109
-330 -174 -77 -38 -153 -76 -170 -85 -299 -158 -443 -212 -565 -212 -58 0
-346 42 -357 52 -3 4 2 28 11 54 10 26 21 63 26 82 13 49 34 68 62 53 70 -35
193 -42 318 -18 96 19 113 25 240 91 124 63 215 97 380 142 126 34 160 44 255
74 109 34 201 68 282 105 28 13 56 24 61 24 5 0 15 7 22 15 7 8 21 15 31 15
11 0 19 5 19 10 0 6 10 15 23 20 33 15 77 44 100 67 14 14 57 17 57 4z m-220
-18 c9 -9 -33 -33 -69 -39 -20 -4 -43 -12 -51 -19 -23 -20 -90 -45 -119 -45
-15 0 -32 -5 -39 -12 -9 -9 -18 -8 -37 2 -22 12 -30 12 -54 -3 -16 -9 -38 -17
-49 -17 -10 0 -39 -11 -64 -24 -24 -13 -54 -27 -67 -31 -12 -3 -72 -30 -134
-59 -62 -29 -132 -60 -157 -70 -25 -10 -53 -22 -64 -28 -10 -5 -39 -13 -65
-18 -25 -5 -64 -13 -86 -19 -22 -5 -76 -17 -120 -26 -44 -9 -111 -22 -150 -30
-145 -29 -191 -38 -229 -43 l-39 -4 7 32 c3 18 13 46 21 63 8 16 17 44 21 63
9 48 39 68 141 94 102 25 159 35 338 55 325 38 490 62 538 80 20 8 58 15 83
15 30 0 46 5 50 15 4 8 12 15 19 15 7 0 19 9 26 19 10 15 31 22 79 26 36 4 97
10 135 15 65 7 123 4 135 -7z m-7889 -203 c10 -6 19 -16 19 -23 0 -34 94 -142
213 -244 50 -43 131 -113 181 -157 205 -177 286 -287 340 -461 60 -194 57
-186 111 -300 61 -128 126 -228 338 -528 173 -244 256 -375 296 -467 13 -30
31 -71 39 -90 8 -19 21 -47 29 -62 7 -14 13 -37 13 -50 0 -13 4 -28 10 -34 5
-5 15 -32 20 -59 28 -127 41 -195 51 -260 13 -82 6 -317 -10 -360 -6 -16 -19
-55 -29 -85 -27 -83 -72 -160 -98 -166 -33 -8 -44 2 -44 41 0 38 -14 104 -36
175 -8 25 -14 56 -14 70 0 14 -6 54 -15 90 -8 36 -22 110 -31 165 -30 184 -88
335 -192 497 -96 149 -223 373 -286 503 -121 250 -222 444 -316 610 -13 22
-46 83 -75 135 -69 125 -104 187 -129 230 -12 20 -26 44 -32 55 -32 57 -54 5
-24 -59 11 -25 20 -49 20 -55 0 -6 6 -25 14 -43 8 -18 22 -53 31 -78 10 -25
21 -54 26 -65 5 -11 20 -49 33 -85 13 -36 48 -114 76 -175 29 -60 56 -118 61
-130 5 -11 18 -33 29 -50 11 -16 23 -37 26 -45 15 -33 141 -235 260 -415 69
-104 147 -227 174 -272 60 -102 140 -266 140 -288 0 -9 5 -26 11 -37 11 -21
31 -176 44 -348 10 -133 45 -320 71 -379 13 -29 24 -57 24 -62 0 -18 -51 -8
-90 16 -22 14 -42 25 -44 25 -9 0 -178 101 -241 144 -131 89 -263 204 -406
353 -49 51 -214 264 -246 318 -6 11 -34 56 -61 100 -61 99 -88 153 -141 280
-23 55 -46 108 -51 117 -6 10 -10 26 -10 36 0 10 -7 27 -15 38 -8 10 -15 29
-15 41 0 12 -6 37 -14 55 -19 45 -38 106 -47 148 -4 19 -17 82 -29 140 -40
192 -60 363 -66 555 -6 189 7 520 25 625 5 30 17 118 26 195 24 204 21 193 56
175z m9794 -1123 c0 -24 -370 -403 -524 -536 -161 -139 -303 -246 -386 -291
-77 -42 -215 -100 -236 -100 -9 0 -33 -7 -54 -16 -52 -21 -192 -23 -225 -2
-14 8 -51 23 -83 33 -64 19 -104 46 -93 63 4 7 32 12 64 13 31 0 77 8 101 17
49 19 129 85 181 149 19 24 48 59 64 79 33 40 112 84 151 84 53 0 245 110 245
140 0 45 -63 52 -173 19 -60 -19 -79 -31 -130 -81 -65 -64 -106 -93 -177 -123
-25 -10 -64 -31 -88 -47 -24 -15 -45 -28 -47 -28 -14 0 -196 -142 -229 -179
-25 -28 -34 -27 -113 13 -68 34 -141 67 -176 79 -17 7 -17 9 4 39 32 47 203
216 231 228 34 16 68 36 81 49 6 6 19 11 28 11 9 0 22 7 29 15 7 8 23 15 36
15 12 0 25 4 28 9 5 8 93 37 181 61 68 18 440 94 536 109 32 5 66 14 77 20 12
6 34 11 50 11 16 0 46 7 65 15 20 8 49 15 64 15 15 0 48 6 73 14 62 19 140 41
236 66 44 11 105 29 135 39 61 22 74 21 74 -2z m-2606 -668 c78 -25 81 -27 81
-61 1 -49 26 -195 44 -258 9 -30 21 -68 26 -85 15 -54 39 -117 69 -185 32 -72
42 -134 47 -290 3 -105 10 -181 19 -208 8 -23 15 -50 16 -60 0 -9 8 -42 18
-72 15 -46 22 -56 44 -58 37 -4 41 21 34 192 -5 121 -9 150 -32 206 -41 103
-55 174 -65 350 -14 218 -41 338 -96 422 -32 50 -31 68 5 68 46 0 117 -37 149
-78 26 -34 81 -113 124 -180 19 -30 67 -125 93 -187 37 -86 60 -197 80 -381
12 -111 -23 -343 -93 -614 -24 -96 -48 -193 -52 -215 -4 -22 -12 -53 -19 -68
-6 -16 -11 -44 -11 -64 0 -43 -28 -143 -41 -143 -5 0 -20 21 -34 48 -14 26
-48 85 -76 132 -54 94 -137 260 -164 330 -10 25 -24 59 -31 77 -8 17 -14 40
-14 50 0 10 -4 23 -9 28 -6 6 -14 28 -19 50 -6 22 -21 85 -35 140 -35 141
-107 492 -127 620 -16 107 -33 410 -25 460 5 40 9 45 32 45 15 0 43 -5 62 -11z
m1481 -429 c0 -5 11 -10 25 -10 14 0 25 -4 25 -10 0 -5 -9 -10 -19 -10 -11 0
-23 5 -26 10 -3 6 -15 10 -25 10 -10 0 -22 5 -25 10 -4 6 5 10 19 10 14 0 26
-4 26 -10z m-2056 -889 c3 -5 -2 -19 -13 -32 -10 -13 -58 -82 -106 -154 -85
-125 -235 -328 -288 -390 -126 -149 -174 -201 -252 -276 -49 -48 -115 -106
-145 -129 -130 -99 -238 -177 -273 -199 -41 -25 -57 -25 -222 4 -145 26 -303
45 -369 45 -36 0 -66 3 -66 6 0 3 29 38 65 77 57 63 98 120 273 377 47 69 183
213 241 254 63 44 204 121 306 166 71 32 249 93 375 130 41 12 86 25 100 30
14 5 52 16 85 25 87 25 154 45 200 60 47 16 82 18 89 6z m-5161 -275 c7 -17
-1 -26 -24 -26 -21 0 -33 15 -24 30 9 15 42 12 48 -4z m3144 -993 c21 -10 48
-29 61 -43 13 -14 45 -48 72 -76 46 -49 129 -168 150 -216 5 -12 14 -30 19
-38 22 -39 58 -136 71 -190 5 -19 13 -53 19 -75 62 -250 70 -491 36 -1090 -8
-139 -33 -358 -49 -428 -9 -38 -14 -73 -10 -78 10 -17 -19 -79 -38 -79 -10 0
-18 4 -18 9 0 6 -40 92 -89 193 -188 388 -209 432 -286 618 -31 74 -60 144
-65 155 -4 11 -16 45 -25 75 -10 30 -24 70 -31 88 -8 18 -14 42 -14 54 0 12
-6 44 -14 72 -34 118 -45 269 -48 661 -3 252 -1 284 15 320 33 74 51 85 133
85 49 0 86 -6 111 -17z m2523 -32 c120 -22 215 -42 260 -57 25 -8 53 -14 62
-14 10 0 32 -6 50 -14 18 -8 62 -23 98 -35 175 -55 353 -134 565 -250 95 -52
417 -245 460 -275 16 -12 37 -25 46 -31 9 -5 46 -28 83 -50 48 -29 65 -45 64
-59 -4 -27 -213 -132 -493 -248 -66 -27 -131 -53 -145 -58 -14 -5 -50 -18 -80
-30 -30 -12 -68 -25 -85 -30 -16 -4 -41 -12 -55 -17 -29 -12 -113 -36 -185
-53 -140 -33 -487 -36 -585 -6 -42 13 -82 25 -220 63 -51 14 -78 24 -140 51
-14 6 -54 23 -90 38 -125 51 -232 111 -394 219 -259 174 -472 393 -617 636
-34 57 -69 109 -77 116 -8 7 -12 19 -9 28 5 12 25 15 104 15 101 0 285 13 433
31 47 6 126 15 175 20 50 6 124 14 165 19 102 11 530 5 610 -9z"/>
<path d="M4626 4753 c4 -16 12 -41 20 -58 29 -66 113 -294 129 -350 36 -125
43 -151 59 -201 9 -29 16 -65 16 -82 0 -16 7 -49 15 -72 8 -23 15 -57 15 -76
0 -18 5 -45 11 -61 42 -109 91 -482 82 -614 -12 -149 85 -580 133 -596 15 -5
9 406 -6 457 -5 19 -10 48 -10 65 0 16 -6 50 -14 75 -44 140 -65 328 -80 725
-11 297 -64 452 -232 683 -74 101 -104 132 -126 132 -15 0 -17 -5 -12 -27z"/>
</g>
</svg>
